<svg width="41" height="58" viewBox="0 0 41 58" fill="none" xmlns="http://www.w3.org/2000/svg">
<path d="M31.9474 21.4414C29.7081 21.4414 27.9282 23.2794 27.9282 25.5918C27.9282 27.9041 29.7081 29.7422 31.9474 29.7422C34.1866 29.7422 35.9665 27.9041 35.9665 25.5918C35.9665 23.2794 34.1866 21.4414 31.9474 21.4414ZM31.9474 28.5564C30.3397 28.5564 29.0765 27.2519 29.0765 25.5918C29.0765 23.9316 30.3397 22.6272 31.9474 22.6272C33.555 22.6272 34.8182 23.9316 34.8182 25.5918C34.8182 27.2519 33.555 28.5564 31.9474 28.5564Z" fill="#C4C4C4"/>
<path fill-rule="evenodd" clip-rule="evenodd" d="M27.7282 25.5918C27.7282 23.1753 29.5915 21.2415 31.9474 21.2415C34.3032 21.2415 36.1665 23.1753 36.1665 25.5918C36.1665 28.0083 34.3032 29.942 31.9474 29.942C29.5915 29.942 27.7282 28.0083 27.7282 25.5918ZM29.2766 25.5918C29.2766 27.1478 30.4563 28.3565 31.9474 28.3565C33.4384 28.3565 34.6182 27.1478 34.6182 25.5918C34.6182 24.0358 33.4384 22.8271 31.9474 22.8271C30.4563 22.8271 29.2766 24.0358 29.2766 25.5918ZM27.9282 25.5918C27.9282 23.2794 29.7081 21.4414 31.9474 21.4414C34.1866 21.4414 35.9665 23.2794 35.9665 25.5918C35.9665 27.9041 34.1866 29.7422 31.9474 29.7422C29.7081 29.7422 27.9282 27.9041 27.9282 25.5918ZM29.0766 25.5918C29.0766 27.2519 30.3397 28.5563 31.9474 28.5563C33.555 28.5563 34.8182 27.2519 34.8182 25.5918C34.8182 23.9316 33.555 22.6272 31.9474 22.6272C30.3397 22.6272 29.0766 23.9316 29.0766 25.5918Z" fill="#C4C4C4"/>
<path d="M40.1163 23.7417L38.5454 23.2371L38.2088 22.3961L38.9942 20.9385C39.1625 20.6021 39.1064 20.1536 38.8259 19.8733L37.4795 18.5277C37.199 18.2474 36.7502 18.1914 36.4136 18.3596L34.955 19.1444L34.1135 18.8081L33.6086 17.2383C33.4964 16.9019 33.1598 16.6216 32.7671 16.6216H30.8597C30.467 16.6216 30.1304 16.9019 30.0743 17.2943L29.5694 18.8641C29.2328 18.9202 28.9523 19.0323 28.6718 19.2005L27.2131 18.4156C26.8765 18.2474 26.4277 18.3035 26.1472 18.5838L24.8008 19.9293C24.5203 20.2097 24.4642 20.6582 24.6325 20.9945L25.3618 22.3961C25.2496 22.6765 25.1374 23.0128 25.0252 23.2932L23.4544 23.7977C23.1178 23.9099 22.8373 24.2462 22.8373 24.6387V26.5448C22.8373 26.9373 23.1178 27.2737 23.5105 27.3858L25.0813 27.8904L25.4179 28.7313L24.6325 30.189C24.4642 30.5254 24.5203 30.9739 24.8008 31.2542L26.1472 32.5997C26.4277 32.88 26.8765 32.9361 27.2131 32.7679L28.6718 31.983L29.5133 32.3194L30.0182 33.9453C30.1304 34.2816 30.467 34.562 30.8597 34.562H32.7671C33.1598 34.562 33.4964 34.2816 33.6086 33.9453L34.1135 32.3194L34.955 31.983L36.4136 32.7679C36.7502 32.9361 37.199 32.88 37.4795 32.5997L38.8259 31.2542C39.1064 30.9739 39.1625 30.5254 38.9942 30.189L38.2088 28.7313L38.5454 27.8904L40.1724 27.3858C40.509 27.2737 40.7895 26.9373 40.7895 26.5448V24.6387C40.7895 24.2462 40.509 23.8538 40.1163 23.7417ZM39.6675 26.3767L37.6478 26.9934L37.5917 27.2737L37.0868 28.451L36.9185 28.7313L37.9283 30.5814L36.8063 31.7027L34.955 30.6936L34.6745 30.8618C34.2818 31.086 33.8891 31.2542 33.4964 31.3663L33.2159 31.4224L32.5988 33.4407H31.028L30.4109 31.4224L30.1304 31.3663L28.9523 30.8618L28.6718 30.6936L26.8204 31.7027L25.6984 30.5814L26.7082 28.7313L26.5399 28.451C26.3155 28.0586 26.1472 27.6661 26.035 27.2737L25.9789 26.9934L23.9593 26.3767V24.8069L25.8667 24.2462L25.9789 23.9659C26.0911 23.5174 26.2594 23.125 26.4838 22.7325L26.6521 22.4522L25.6984 20.6021L26.8204 19.4808L28.6157 20.49L28.8962 20.3218C29.2889 20.0975 29.6816 19.9293 30.1304 19.8172L30.4109 19.7051L31.028 17.7429H32.5988L33.2159 19.7051L33.4964 19.8172C33.8891 19.9293 34.2818 20.0975 34.6745 20.3218L34.955 20.49L36.8063 19.4808L37.9283 20.6021L36.9185 22.4522L37.0868 22.7325C37.3112 23.125 37.4795 23.5174 37.5917 23.9099L37.6478 24.1902L39.6675 24.8069V26.3767Z" fill="#C4C4C4"/>
<path fill-rule="evenodd" clip-rule="evenodd" d="M38.9943 20.9385L38.2088 22.3962L38.5454 23.2371L40.1163 23.7417C40.509 23.8538 40.7895 24.2463 40.7895 24.6387V26.5449C40.7895 26.9373 40.509 27.2737 40.1724 27.3858L38.5454 27.8904L38.2088 28.7314L38.9943 30.189C39.1626 30.5254 39.1065 30.9739 38.826 31.2542L37.4795 32.5998C37.199 32.8801 36.7502 32.9361 36.4136 32.768L34.955 31.9831L34.1135 32.3194L33.6086 33.9453C33.4964 34.2817 33.1598 34.562 32.7671 34.562H30.8597C30.467 34.562 30.1304 34.2817 30.0182 33.9453L29.5133 32.3194L28.6718 31.9831L27.2132 32.768C26.8765 32.9361 26.4277 32.8801 26.1472 32.5998L24.8008 31.2542C24.5203 30.9739 24.4642 30.5254 24.6325 30.189L25.4179 28.7314L25.0813 27.8904L23.5105 27.3858C23.1178 27.2737 22.8373 26.9373 22.8373 26.5449V24.6387C22.8373 24.2463 23.1178 23.9099 23.4544 23.7978L25.0252 23.2932C25.0813 23.153 25.1374 22.9989 25.1935 22.8447C25.2496 22.6905 25.3057 22.5363 25.3618 22.3962L24.6325 20.9946C24.4642 20.6582 24.5203 20.2097 24.8008 19.9294L26.1472 18.5838C26.4277 18.3035 26.8765 18.2475 27.2132 18.4157L28.6718 19.2005C28.9523 19.0324 29.2328 18.9202 29.5694 18.8642L30.0743 17.2944C30.1304 16.9019 30.467 16.6216 30.8597 16.6216H32.7671C33.1598 16.6216 33.4964 16.9019 33.6086 17.2383L34.1135 18.8081L34.955 19.1445L36.4136 18.3596C36.7502 18.1914 37.199 18.2475 37.4795 18.5278L38.826 19.8733C39.1065 20.1536 39.1626 20.6021 38.9943 20.9385ZM34.9425 18.9242L36.3241 18.1807C36.7337 17.9761 37.2764 18.0421 37.621 18.3865L38.9674 19.732C39.3119 20.0763 39.3779 20.6187 39.1731 21.0279L39.1704 21.0333L38.4293 22.4087L38.6962 23.0756L40.1745 23.5505C40.6544 23.6892 40.9895 24.1614 40.9895 24.6387V26.5449C40.9895 27.0319 40.6454 27.4389 40.2356 27.5755L40.2317 27.5768L38.6957 28.0531L38.4293 28.7189L39.1732 30.0996C39.378 30.5088 39.3119 31.0512 38.9674 31.3956L37.621 32.7411C37.2764 33.0854 36.7337 33.1513 36.3242 32.9467L36.3188 32.944L34.9425 32.2033L34.2763 32.4696L33.7984 34.0085C33.6618 34.4181 33.2545 34.7619 32.7671 34.7619H30.8597C30.3723 34.7619 29.9651 34.4181 29.8284 34.0085L29.8271 34.0045L29.3505 32.4696L28.6843 32.2033L27.3026 32.9468C26.8931 33.1514 26.3504 33.0854 26.0058 32.7411L24.6594 31.3956C24.3149 31.0512 24.2489 30.5089 24.4536 30.0996L24.4564 30.0942L25.1975 28.7189L24.9306 28.0519L23.4523 27.5771C22.9866 27.4427 22.6373 27.0366 22.6373 26.5449V24.6387C22.6373 24.1517 22.9813 23.7447 23.3912 23.6082L23.3932 23.6075L24.8737 23.1319C24.9172 23.0193 24.9609 22.899 25.0056 22.7764L25.0062 22.7746C25.0509 22.6517 25.0965 22.5265 25.1424 22.4077L24.4536 21.084C24.2489 20.6747 24.3149 20.1324 24.6594 19.788L26.0058 18.4425C26.3504 18.0982 26.8931 18.0323 27.3026 18.2369L27.308 18.2396L28.6684 18.9717C28.9022 18.8423 29.1425 18.7477 29.4153 18.6899L29.879 17.2485C29.9571 16.7634 30.3768 16.4218 30.8597 16.4218H32.7671C33.2545 16.4218 33.6617 16.7655 33.7983 17.1751L33.799 17.1772L34.2751 18.6574L34.9425 18.9242ZM37.4752 26.8371L39.4675 26.2288V24.9548L37.4752 24.3465L37.3972 23.9571C37.2901 23.5848 37.1295 23.2103 36.9142 22.8336L36.6881 22.457L37.6811 20.6377L36.7707 19.7279L34.9503 20.7203L34.5734 20.4943C34.1938 20.2777 33.8165 20.1165 33.4415 20.0094L33.4316 20.0066L33.0535 19.8555L32.452 17.9428H31.1748L30.5732 19.8555L30.1921 20.0079L30.1789 20.0112C29.7511 20.118 29.3759 20.2782 28.9972 20.4943L28.6189 20.7212L26.8546 19.7294L25.9431 20.6403L26.8809 22.4596L26.6564 22.8335C26.4402 23.212 26.2799 23.5869 26.173 24.0144L26.1697 24.0276L26.0164 24.4106L24.1593 24.9565V26.2288L26.1516 26.8371L26.2296 27.2265C26.3367 27.5988 26.4973 27.9733 26.7125 28.3501L26.9386 28.7266L25.9457 30.5459L26.8561 31.4557L28.6765 30.4634L29.0435 30.6834L30.19 31.1745L30.5672 31.2499L31.176 33.2409H32.4508L33.0595 31.2499L33.4491 31.172C33.8217 31.0649 34.1964 30.9044 34.5734 30.6893L34.9503 30.4634L36.7707 31.4557L37.6811 30.5459L36.6881 28.7266L36.9084 28.3599L37.3997 27.2141L37.4752 26.8371ZM37.5917 27.2737L37.0868 28.4511L36.9185 28.7314L37.9283 30.5815L36.8063 31.7027L34.955 30.6936L34.6745 30.8618C34.2818 31.086 33.8891 31.2542 33.4964 31.3664L33.2159 31.4224L32.5988 33.4407H31.028L30.4109 31.4224L30.1304 31.3664L28.9523 30.8618L28.6718 30.6936L26.8204 31.7027L25.6984 30.5815L26.7082 28.7314L26.5399 28.4511C26.3155 28.0586 26.1472 27.6662 26.035 27.2737L25.9789 26.9934L23.9593 26.3767V24.8069L25.8667 24.2463L25.9789 23.966C26.0911 23.5175 26.2594 23.125 26.4838 22.7326L26.6521 22.4522L25.6984 20.6021L26.8204 19.4809L28.6157 20.49L28.8962 20.3218C29.2889 20.0976 29.6816 19.9294 30.1304 19.8173L30.4109 19.7051L31.028 17.7429H32.5988L33.2159 19.7051L33.4964 19.8173C33.8891 19.9294 34.2818 20.0976 34.6745 20.3218L34.955 20.49L36.8063 19.4809L37.9283 20.6021L36.9185 22.4522L37.0868 22.7326C37.3112 23.125 37.4795 23.5175 37.5917 23.9099L37.6478 24.1902L39.6675 24.8069V26.3767L37.6478 26.9934L37.5917 27.2737Z" fill="#C4C4C4"/>
<path d="M17.7405 32.5424C16.6213 32.5424 15.7316 33.4321 15.7316 34.5513C15.7316 35.6705 16.6213 36.5601 17.7405 36.5601C18.8597 36.5601 19.7493 35.6705 19.7493 34.5513C19.7493 33.4321 18.8597 32.5424 17.7405 32.5424ZM17.7405 35.9862C16.9369 35.9862 16.3056 35.3548 16.3056 34.5513C16.3056 33.7477 16.9369 33.1164 17.7405 33.1164C18.544 33.1164 19.1754 33.7477 19.1754 34.5513C19.1754 35.3548 18.544 35.9862 17.7405 35.9862Z" fill="#C4C4C4"/>
<path fill-rule="evenodd" clip-rule="evenodd" d="M15.5316 34.5514C15.5316 33.3218 16.5108 32.3426 17.7405 32.3426C18.9702 32.3426 19.9493 33.3218 19.9493 34.5514C19.9493 35.7811 18.9702 36.7603 17.7405 36.7603C16.5108 36.7603 15.5316 35.7811 15.5316 34.5514ZM16.5056 34.5514C16.5056 35.2445 17.0474 35.7863 17.7405 35.7863C18.4336 35.7863 18.9754 35.2445 18.9754 34.5514C18.9754 33.8584 18.4336 33.3165 17.7405 33.3165C17.0474 33.3165 16.5056 33.8584 16.5056 34.5514ZM15.7316 34.5514C15.7316 33.4322 16.6213 32.5426 17.7405 32.5426C18.8597 32.5426 19.7493 33.4322 19.7493 34.5514C19.7493 35.6707 18.8597 36.5603 17.7405 36.5603C16.6213 36.5603 15.7316 35.6707 15.7316 34.5514ZM16.3056 34.5514C16.3056 35.355 16.9369 35.9863 17.7405 35.9863C18.544 35.9863 19.1754 35.355 19.1754 34.5514C19.1754 33.7479 18.544 33.1165 17.7405 33.1165C16.9369 33.1165 16.3056 33.7479 16.3056 34.5514Z" fill="#C4C4C4"/>
<path d="M22.0763 33.5839L21.256 33.3204L21.0802 32.8812L21.4903 32.12C21.5782 31.9444 21.5489 31.7101 21.4025 31.5638L20.6994 30.8611C20.5529 30.7147 20.3185 30.6855 20.1427 30.7733L19.381 31.1832L18.9416 31.0075L18.6779 30.1878C18.6194 30.0121 18.4436 29.8657 18.2385 29.8657H17.2425C17.0374 29.8657 16.8616 30.0121 16.8323 30.217L16.5686 31.0368C16.3929 31.0661 16.2464 31.1246 16.0999 31.2124L15.3382 30.8026C15.1624 30.7147 14.9281 30.744 14.7816 30.8904L14.0785 31.593C13.932 31.7394 13.9027 31.9736 13.9906 32.1493L14.3715 32.8812C14.3129 33.0276 14.2543 33.2033 14.1957 33.3496L13.3754 33.6131C13.1996 33.6717 13.0531 33.8473 13.0531 34.0523V35.0477C13.0531 35.2526 13.1996 35.4283 13.4047 35.4868L14.225 35.7503L14.4008 36.1895L13.9906 36.9507C13.9027 37.1263 13.932 37.3605 14.0785 37.5069L14.7816 38.2096C14.9281 38.3559 15.1624 38.3852 15.3382 38.2974L16.0999 37.8875L16.5394 38.0632L16.803 38.9122C16.8616 39.0879 17.0374 39.2342 17.2425 39.2342H18.2385C18.4436 39.2342 18.6194 39.0879 18.6779 38.9122L18.9416 38.0632L19.381 37.8875L20.1427 38.2974C20.3185 38.3852 20.5529 38.3559 20.6994 38.2096L21.4025 37.5069C21.5489 37.3605 21.5782 37.1263 21.4903 36.9507L21.0802 36.1895L21.256 35.7503L22.1056 35.4868C22.2813 35.4283 22.4278 35.2526 22.4278 35.0477V34.0523C22.4278 33.8473 22.2813 33.6424 22.0763 33.5839ZM21.8419 34.9599L20.7872 35.2819L20.758 35.4283L20.4943 36.0431L20.4064 36.1895L20.9337 37.1556L20.3478 37.7411L19.381 37.2141L19.2346 37.302C19.0295 37.4191 18.8244 37.5069 18.6194 37.5655L18.4729 37.5947L18.1506 38.6487H17.3303L17.0081 37.5947L16.8616 37.5655L16.2464 37.302L16.0999 37.2141L15.1332 37.7411L14.5472 37.1556L15.0746 36.1895L14.9867 36.0431C14.8695 35.8381 14.7816 35.6332 14.723 35.4283L14.6937 35.2819L13.6391 34.9599V34.1401L14.6351 33.8473L14.6937 33.701C14.7523 33.4667 14.8402 33.2618 14.9574 33.0569L15.0453 32.9105L14.5472 31.9444L15.1332 31.3588L16.0706 31.8858L16.2171 31.798C16.4222 31.6809 16.6272 31.593 16.8616 31.5345L17.0081 31.4759L17.3303 30.4513H18.1506L18.4729 31.4759L18.6194 31.5345C18.8244 31.593 19.0295 31.6809 19.2346 31.798L19.381 31.8858L20.3478 31.3588L20.9337 31.9444L20.4064 32.9105L20.4943 33.0569C20.6115 33.2618 20.6994 33.4667 20.758 33.6717L20.7872 33.8181L21.8419 34.1401V34.9599Z" fill="#C4C4C4"/>
<path fill-rule="evenodd" clip-rule="evenodd" d="M21.4903 32.12L21.0802 32.8812L21.256 33.3203L22.0763 33.5838C22.2813 33.6424 22.4278 33.8473 22.4278 34.0523V35.0477C22.4278 35.2526 22.2813 35.4283 22.1056 35.4868L21.256 35.7503L21.0802 36.1894L21.4903 36.9506C21.5782 37.1263 21.5489 37.3605 21.4025 37.5069L20.6994 38.2095C20.5529 38.3559 20.3185 38.3852 20.1427 38.2974L19.381 37.8875L18.9416 38.0632L18.6779 38.9122C18.6194 39.0878 18.4436 39.2342 18.2385 39.2342H17.2425C17.0374 39.2342 16.8616 39.0878 16.803 38.9122L16.5394 38.0632L16.0999 37.8875L15.3382 38.2974C15.1624 38.3852 14.9281 38.3559 14.7816 38.2095L14.0785 37.5069C13.932 37.3605 13.9027 37.1263 13.9906 36.9506L14.4008 36.1894L14.225 35.7503L13.4047 35.4868C13.1996 35.4283 13.0531 35.2526 13.0531 35.0477V34.0523C13.0531 33.8473 13.1996 33.6717 13.3754 33.6131L14.1957 33.3496C14.225 33.2764 14.2543 33.1959 14.2836 33.1154C14.3129 33.0349 14.3422 32.9544 14.3715 32.8812L13.9906 32.1493C13.9027 31.9736 13.932 31.7394 14.0785 31.593L14.7816 30.8904C14.9281 30.744 15.1624 30.7147 15.3382 30.8026L16.0999 31.2124C16.2464 31.1246 16.3929 31.066 16.5686 31.0368L16.8323 30.217C16.8616 30.0121 17.0374 29.8657 17.2425 29.8657H18.2385C18.4436 29.8657 18.6194 30.0121 18.6779 30.1877L18.9416 31.0075L19.381 31.1831L20.1427 30.7733C20.3185 30.6854 20.5529 30.7147 20.6994 30.8611L21.4025 31.5637C21.5489 31.7101 21.5782 31.9443 21.4903 32.12ZM19.3685 30.9629L20.0533 30.5944C20.3019 30.4702 20.6303 30.5094 20.8408 30.7198L21.5439 31.4224C21.7544 31.6328 21.7936 31.9609 21.6692 32.2094L21.6665 32.2148L21.3006 32.8937L21.4067 33.1588L22.1347 33.3926C22.4268 33.4778 22.6278 33.7625 22.6278 34.0523V35.0477C22.6278 35.3472 22.4178 35.5935 22.1688 35.6764L22.1649 35.6777L21.4063 35.913L21.3006 36.1769L21.6693 36.8612C21.7937 37.1097 21.7544 37.4378 21.5439 37.6482L20.8408 38.3509C20.6303 38.5613 20.302 38.6004 20.0533 38.4761L20.0479 38.4734L19.3685 38.1078L19.1044 38.2134L18.8677 38.9754C18.7847 39.2242 18.5382 39.4341 18.2385 39.4341H17.2425C16.9427 39.4341 16.6963 39.2242 16.6133 38.9754L16.612 38.9714L16.3766 38.2134L16.1124 38.1078L15.4277 38.4762C15.179 38.6005 14.8507 38.5613 14.6402 38.3509L13.9371 37.6482C13.7266 37.4378 13.6874 37.1098 13.8117 36.8613L13.8144 36.8558L14.1803 36.1769L14.0742 35.9118L13.3464 35.678C13.0683 35.5971 12.8531 35.3518 12.8531 35.0477V34.0523C12.8531 33.7527 13.0631 33.5064 13.3122 33.4235L13.3142 33.4228L14.0436 33.1885C14.0606 33.1433 14.0779 33.0959 14.0956 33.0471L14.0962 33.0454C14.1145 32.9953 14.1333 32.9437 14.1523 32.8932L13.8117 32.2387C13.6874 31.9902 13.7266 31.6621 13.9371 31.4517L14.6402 30.7491C14.8507 30.5387 15.179 30.4995 15.4277 30.6238L15.4331 30.6265L16.0984 30.9846C16.1979 30.9335 16.301 30.8933 16.4138 30.865L16.6372 30.1704C16.6887 29.8733 16.9474 29.6658 17.2425 29.6658H18.2385C18.5382 29.6658 18.7847 29.8757 18.8677 30.1245L18.8684 30.1266L19.1032 30.8568L19.3685 30.9629ZM20.6146 35.1256L21.6419 34.8119V34.288L20.6146 33.9743L20.5635 33.719C20.5099 33.5341 20.4297 33.3471 20.3217 33.1578L20.176 32.9152L20.6865 31.9799L20.3122 31.6059L19.3763 32.116L19.1335 31.9705C18.9416 31.861 18.7519 31.7802 18.5644 31.7266L18.5546 31.7238L18.3105 31.6263L18.0038 30.6511H17.4771L17.1704 31.6263L16.9233 31.7251L16.9101 31.7284C16.6968 31.7817 16.5092 31.8615 16.3181 31.9705L16.0739 32.1169L15.1673 31.6073L14.7919 31.9825L15.2741 32.9179L15.13 33.1578C15.021 33.3487 14.9411 33.5362 14.8877 33.7494L14.8845 33.7626L14.7847 34.0117L13.8391 34.2896V34.8119L14.8664 35.1256L14.9175 35.381C14.9711 35.5658 15.0512 35.7528 15.1593 35.9421L15.305 36.1847L14.7945 37.12L15.1688 37.494L16.1046 36.9839L16.3377 37.1236L16.9213 37.3735L17.1644 37.4222L17.4784 38.4488H18.0026L18.3165 37.4222L18.572 37.3711C18.757 37.3176 18.9442 37.2374 19.1335 37.1295L19.3763 36.9839L20.3122 37.494L20.6865 37.12L20.176 36.1847L20.3158 35.9519L20.5659 35.3687L20.6146 35.1256ZM20.758 35.4283L20.4943 36.0431L20.4064 36.1894L20.9337 37.1556L20.3478 37.7411L19.381 37.2141L19.2346 37.302C19.0295 37.4191 18.8244 37.5069 18.6194 37.5654L18.4729 37.5947L18.1506 38.6487H17.3303L17.0081 37.5947L16.8616 37.5654L16.2464 37.302L16.0999 37.2141L15.1332 37.7411L14.5472 37.1556L15.0746 36.1894L14.9867 36.0431C14.8695 35.8381 14.7816 35.6332 14.723 35.4283L14.6937 35.2819L13.6391 34.9598V34.1401L14.6351 33.8473L14.6937 33.7009C14.7523 33.4667 14.8402 33.2618 14.9574 33.0569L15.0453 32.9105L14.5472 31.9443L15.1332 31.3588L16.0706 31.8858L16.2171 31.798C16.4222 31.6809 16.6272 31.593 16.8616 31.5345L17.0081 31.4759L17.3303 30.4512H18.1506L18.4729 31.4759L18.6194 31.5345C18.8244 31.593 19.0295 31.6809 19.2346 31.798L19.381 31.8858L20.3478 31.3588L20.9337 31.9443L20.4064 32.9105L20.4943 33.0569C20.6115 33.2618 20.6994 33.4667 20.758 33.6717L20.7872 33.818L21.8419 34.1401V34.9598L20.7872 35.2819L20.758 35.4283Z" fill="#C4C4C4"/>
<path fill-rule="evenodd" clip-rule="evenodd" d="M0 1C0 0.447715 0.447715 0 1 0H32.3493C32.9016 0 33.3493 0.447715 33.3493 1V13.8612C33.3493 14.4135 32.9016 14.8612 32.3493 14.8612C31.797 14.8612 31.3493 14.4135 31.3493 13.8612V2H2V56H31.3493V40.3876C31.3493 39.8353 31.797 39.3876 32.3493 39.3876C32.9016 39.3876 33.3493 39.8353 33.3493 40.3876V57C33.3493 57.5523 32.9016 58 32.3493 58H1C0.447715 58 0 57.5523 0 57V1Z" fill="#C4C4C4"/>
<path fill-rule="evenodd" clip-rule="evenodd" d="M32.3493 8.16272H1.134V6.16272H32.3493V8.16272Z" fill="#C4C4C4"/>
<path fill-rule="evenodd" clip-rule="evenodd" d="M32.3493 47.4163H1.134V45.4163H32.3493V47.4163Z" fill="#C4C4C4"/>
<path d="M17.7464 50.9713C17.7464 51.7112 17.1466 52.311 16.4067 52.311C15.6668 52.311 15.067 51.7112 15.067 50.9713C15.067 50.2314 15.6668 49.6316 16.4067 49.6316C17.1466 49.6316 17.7464 50.2314 17.7464 50.9713Z" fill="#C4C4C4"/>
</svg>
