<svg width="60" height="61" viewBox="0 0 60 61" fill="none" xmlns="http://www.w3.org/2000/svg">
<path d="M59.8791 24.8085C59.0305 26.2269 57.8289 27.3564 56.7525 28.5847C52.9626 32.9099 49.1465 37.2127 45.3378 41.5217C45.1638 41.718 45.0624 41.9207 45.0261 42.1896C44.5192 45.9145 41.6092 48.4586 37.8431 48.4723C35.7166 48.4798 33.5914 48.4736 31.4649 48.4736C31.3084 48.4736 31.1507 48.4786 30.998 48.4573C30.5124 48.3898 30.1507 48.1421 30.0205 47.6568C29.8966 47.1928 30.0468 46.7688 30.4536 46.5374C31.7565 45.7944 32.0556 44.6149 31.9743 43.2453C31.8366 40.9238 32.4824 38.89 34.2097 37.269C35.3086 36.2371 36.6165 35.6192 38.1135 35.4391C38.4677 35.3965 38.738 35.2652 38.9933 35.0388C40.5829 33.6279 42.1724 32.2183 43.7708 30.8174C43.9673 30.6448 44.0787 30.5034 43.9598 30.2307C43.9022 30.0982 43.9347 29.923 43.9347 29.7679C43.9335 26.8824 43.9322 23.998 43.9347 21.1124C43.9347 20.3857 43.9685 20.3495 44.692 20.3507C46.3028 20.3545 46.08 20.2106 46.0875 21.7003C46.0975 23.7866 46.09 25.8717 46.09 27.958C46.09 28.1694 46.09 28.3796 46.09 28.7373C46.4167 28.4659 46.652 28.2795 46.876 28.0819C49.3617 25.8892 51.8524 23.7028 54.3269 21.4977C55.163 20.7535 56.0679 20.2669 57.2319 20.4145C58.5248 20.5796 59.3284 21.3564 59.8791 22.4683C59.8791 23.2488 59.8791 24.0281 59.8791 24.8085ZM56.8514 22.5133C56.4334 22.5308 56.1167 22.751 55.8201 23.0137C50.8649 27.3839 45.911 31.7567 40.9496 36.1195C40.6617 36.3721 40.628 36.5347 40.9158 36.8112C41.7031 37.5667 42.4653 38.3484 43.2376 39.1201C43.986 39.8669 43.9773 39.8606 44.6707 39.0739C48.1114 35.1701 51.5571 31.2702 55.0003 27.3689C55.8514 26.4046 56.7012 25.4389 57.5498 24.4721C57.884 24.0918 58.0179 23.6591 57.8126 23.1763C57.6362 22.761 57.2895 22.5634 56.8514 22.5133ZM36.2748 46.3185C36.2748 46.316 36.2748 46.3135 36.2748 46.311C36.9182 46.311 37.5615 46.326 38.2048 46.3085C40.4102 46.2459 42.3327 44.6487 42.817 42.506C42.9197 42.0495 42.8496 41.6993 42.4891 41.3553C41.4603 40.3734 40.469 39.3528 39.4627 38.3472C38.509 37.394 38.3951 37.3703 37.1409 37.8781C36.9795 37.9431 36.818 38.0169 36.6678 38.1045C34.9719 39.0901 34.1208 40.5598 34.1183 42.5261C34.1158 43.6918 34.1846 44.8675 33.724 45.9833C33.5751 46.3435 33.8342 46.3197 34.052 46.3197C34.7929 46.3197 35.5339 46.3185 36.2748 46.3185Z" fill="#C4C4C4"/>
<path d="M18.0763 60.3824C16.851 60.0647 15.8071 59.4581 15.0186 58.4512C14.6081 57.9271 14.6244 57.8583 15.1851 57.5356C15.2189 57.5156 15.2527 57.4968 15.2865 57.478C15.6282 57.2917 15.9523 57.009 16.3166 56.9415C16.7659 56.8589 16.8723 57.408 17.1677 57.6394C17.8373 58.1672 18.607 58.3373 19.4131 58.3386C26.4972 58.3498 33.5801 58.3536 40.6643 58.3386C42.3577 58.3348 43.5655 57.4768 43.8496 56.0496C44.0636 54.9777 43.9134 53.872 43.921 52.7826C43.9222 52.5712 43.7895 52.4686 43.5818 52.4649C43.4065 52.4611 43.2301 52.4586 43.0548 52.4586C37.6491 52.4586 32.2434 52.4586 26.8389 52.4574C25.9953 52.4574 25.9853 52.4548 25.9941 51.6243C26.0091 50.1934 25.7788 50.3085 27.3007 50.3072C32.4912 50.3047 37.6829 50.3072 42.8734 50.306C44.0449 50.306 43.9272 50.3848 43.9322 49.219C43.936 48.4385 43.9435 47.6593 43.931 46.8788C43.9247 46.4836 44.0849 46.3134 44.4854 46.3172C46.3967 46.3372 46.0712 46.1183 46.085 47.8144C46.1025 50.1346 46.0512 52.4561 46.1 54.7763C46.1551 57.4318 44.8234 59.5356 42.2901 60.2786C42.2163 60.2998 42.1512 60.3474 42.0811 60.3811C34.0795 60.3824 26.0779 60.3824 18.0763 60.3824Z" fill="#C4C4C4"/>
<path d="M30.0518 0.428019C33.7015 0.428019 37.35 0.433022 40.9997 0.425517C42.0485 0.423016 42.991 0.730711 43.8671 1.29107C44.2764 1.55373 44.4341 1.8164 43.9923 2.18414C43.9485 2.22041 43.9172 2.27419 43.8784 2.31672C43.6293 2.59064 43.4228 2.93711 43.1174 3.11723C42.7294 3.34737 42.4879 2.85331 42.1462 2.75325C41.6167 2.5969 41.081 2.50809 40.5341 2.50684C33.5288 2.50309 26.5222 2.50059 19.5169 2.50684C17.7159 2.50809 16.5769 3.30735 16.1976 4.78829C16.1826 4.84458 16.1626 4.89961 16.1513 4.95715C15.9085 6.24922 16.0312 6.39931 17.3291 6.39931C21.9926 6.39931 26.6574 6.39931 31.3209 6.39931C32.0994 6.39931 32.1182 6.41307 32.1182 7.17356C32.1195 8.72704 32.2146 8.54443 30.7877 8.54693C26.163 8.55193 21.5383 8.54818 16.9136 8.54943C16.115 8.54943 16.1138 8.55193 16.1138 9.3687C16.1125 10.597 16.1276 11.8265 16.1063 13.0548C16.0975 13.5464 16.2327 13.7177 16.7534 13.6126C17.9412 13.3737 17.9449 13.3938 17.9462 12.1692C17.9462 11.7402 17.9524 11.3112 17.9487 10.8822C17.9462 10.5469 18.0901 10.3806 18.4405 10.3843C20.4469 10.4019 20.0564 10.158 20.0977 11.8765C20.1052 12.188 20.1265 12.5032 20.0927 12.8121C20.0364 13.3312 20.3004 13.4826 20.7623 13.5376C26.4959 14.223 31.2596 18.9711 31.9292 24.6709C31.9855 25.155 32.137 25.4151 32.6902 25.3726C33.311 25.3263 33.9381 25.3714 34.5626 25.3614C34.9318 25.3551 35.0933 25.5065 35.0883 25.8817C35.0645 27.8079 35.3261 27.494 33.5663 27.5127C32.1057 27.529 32.1044 27.5165 31.8178 28.9637C30.7177 34.5184 26.2168 38.7086 20.6434 39.3465C20.2579 39.3903 20.0852 39.5329 20.0952 39.9294C20.1115 40.5723 20.0814 41.2164 20.1039 41.8593C20.119 42.2984 19.975 42.5035 19.5069 42.4973C17.6846 42.471 17.9637 42.6899 17.9487 41.0088C17.9349 39.5079 17.9462 39.5079 16.4943 39.2189C10.9646 38.117 6.80052 33.6391 6.11087 28.0293C6.05956 27.614 5.87682 27.5052 5.5076 27.5115C4.84424 27.5227 4.18088 27.5027 3.51753 27.5152C3.12076 27.5227 2.95305 27.3564 2.9568 26.9586C2.97307 25.0337 2.77156 25.3851 4.45874 25.3639C5.95442 25.3451 5.91938 25.3526 6.25481 23.8467C7.18101 19.6915 9.5378 16.6221 13.3502 14.7033C13.7971 14.4782 13.9723 14.2368 13.9673 13.7315C13.9422 11.0798 13.9472 8.42685 13.9598 5.77517C13.9673 4.11661 14.4992 2.6757 15.8122 1.59126C16.7646 0.804508 17.8598 0.419263 19.1027 0.421765C22.7524 0.433022 26.4021 0.428019 30.0518 0.428019ZM11.9171 34.7073C11.9459 34.4259 11.9634 34.2745 11.9747 34.1244C12.1699 31.7692 13.1825 29.873 15.1676 28.5534C15.5806 28.2782 15.5819 28.1319 15.274 27.7654C14.3065 26.6159 13.8121 25.3013 14.0386 23.7666C14.369 21.5314 15.9448 19.8504 18.1239 19.4326C20.2003 19.0336 22.3506 20.043 23.4382 21.9292C24.4971 23.7628 24.2593 26.1243 22.8012 27.7479C22.4545 28.1344 22.4883 28.2795 22.9063 28.5621C24.8739 29.893 25.9302 31.7604 26.0754 34.1369C26.0854 34.2958 25.9765 34.5297 26.1968 34.5947C26.3533 34.641 26.4571 34.4496 26.566 34.3433C28.1581 32.7923 29.227 30.9449 29.6851 28.7635C29.9804 27.3601 30.0092 27.499 28.7063 27.5265C28.1406 27.539 27.9666 27.3401 27.9754 26.7835C27.9991 25.4214 27.9741 25.4076 29.3571 25.3701C29.7814 25.3589 29.8941 25.2125 29.834 24.801C29.1957 20.4032 25.7925 16.7434 21.4119 15.8053C19.8536 15.4713 20.1039 15.4463 20.1077 16.8009C20.109 17.2875 19.985 17.4964 19.4519 17.4939C18.0425 17.4876 18.035 17.5101 17.9487 16.0705C17.9286 15.7265 17.8335 15.5889 17.453 15.6364C12.9685 16.198 8.9583 20.0755 8.28493 24.5196C8.15727 25.3626 8.15727 25.3614 8.98959 25.3639C9.22364 25.3639 9.4577 25.3676 9.69175 25.3689C9.94332 25.3701 10.0747 25.4814 10.1223 25.7416C10.3889 27.1925 10.1674 27.484 8.74428 27.5177C8.70547 27.519 8.66542 27.5215 8.62787 27.519C8.28744 27.4927 8.19607 27.6366 8.24363 27.9743C8.61911 30.631 9.83819 32.8224 11.9171 34.7073ZM23.9376 34.5885C23.9339 34.5172 23.9251 34.2833 23.9126 34.0494C23.81 32.1182 22.4695 30.3796 20.6196 29.7779C18.6408 29.135 16.5368 29.7492 15.2639 31.2664C14.0949 32.6598 14.0586 34.2945 14.1337 35.9694C14.145 36.2095 14.344 36.2771 14.5205 36.3596C15.3728 36.7599 16.2665 37.0313 17.1952 37.1789C17.9412 37.2977 17.9437 37.2852 17.9474 36.5535C17.9537 35.2251 17.8273 35.3302 19.1815 35.3289C20.0989 35.3277 20.0989 35.3302 20.1014 36.2195C20.1014 36.4334 20.1102 36.6485 20.1014 36.8624C20.0877 37.2089 20.2329 37.2852 20.5708 37.2339C21.2291 37.1338 21.8737 36.995 22.5033 36.7836C23.9514 36.2946 23.9502 36.2921 23.9376 34.5885ZM19.015 21.5414C17.3629 21.5502 16.1038 22.831 16.1188 24.4858C16.1338 26.0681 17.4568 27.3601 19.0538 27.3501C20.696 27.3414 21.9476 26.0518 21.9301 24.3857C21.915 22.7435 20.6734 21.5327 19.015 21.5414Z" fill="#C4C4C4"/>
<path d="M46.0437 4.40931C49.5545 4.40931 53.0653 4.40806 56.576 4.40931C57.7325 4.40931 58.0454 4.717 58.0467 5.85148C58.0479 9.59385 58.0479 13.3362 58.0467 17.0786C58.0467 18.1468 57.6825 18.5145 56.6061 18.5145C49.5457 18.517 42.4853 18.517 35.425 18.5145C34.3311 18.5145 33.9668 18.1368 33.9668 17.0211C33.9643 13.2987 33.9643 9.57509 33.9668 5.85273C33.9681 4.76078 34.3135 4.41056 35.3962 4.40931C38.9445 4.40806 42.4941 4.40931 46.0437 4.40931ZM46.0086 16.3619C49.1102 16.3619 52.2129 16.3519 55.3144 16.3719C55.8301 16.3757 55.9828 16.2093 55.979 15.7002C55.9577 12.8935 55.9552 10.0854 55.9803 7.27863C55.9853 6.71703 55.8138 6.54191 55.2506 6.54316C49.1252 6.55942 42.9985 6.56068 36.8731 6.54191C36.2811 6.54066 36.1008 6.72578 36.1059 7.3124C36.1309 10.0804 36.1334 12.8497 36.1046 15.6177C36.0983 16.2193 36.2961 16.3782 36.8781 16.3732C39.9208 16.3481 42.9647 16.3619 46.0086 16.3619Z" fill="#C4C4C4"/>
<path d="M11.9847 55.4805C8.57029 55.4805 5.15588 55.4805 1.74147 55.4805C1.52745 55.4805 1.31092 55.488 1.09814 55.4618C0.372206 55.3705 0.0104892 54.9902 0.00798595 54.261C-0.00202699 51.6869 -0.0032786 49.114 0.00798595 46.5399C0.0117408 45.7256 0.406 45.3679 1.27087 45.3666C5.25101 45.3616 9.23115 45.3516 13.2113 45.3766C13.8083 45.3804 13.9885 45.2078 13.9685 44.6161C13.9272 43.4091 13.9698 42.1983 13.9497 40.9901C13.9422 40.5198 14.0999 40.3247 14.5918 40.3359C16.3616 40.3734 16.09 40.1333 16.11 41.7993C16.1213 42.7162 16.1113 43.6318 16.1125 44.5486C16.1138 45.3616 16.1138 45.3629 16.9023 45.3629C18.8335 45.3641 20.7648 45.3616 22.6973 45.3641C23.7574 45.3654 24.0828 45.6956 24.0841 46.7725C24.0866 49.1703 24.0866 51.5693 24.0841 53.9671C24.0828 55.0978 23.7136 55.4755 22.5771 55.478C19.0476 55.483 15.5168 55.4805 11.9847 55.4805ZM12.046 47.4392C8.98333 47.4392 5.92062 47.4492 2.85667 47.4292C2.3385 47.4254 2.12197 47.5568 2.13323 48.1134C2.16327 49.6331 2.16077 51.1553 2.13448 52.675C2.12572 53.1991 2.32473 53.3367 2.82287 53.3354C8.96831 53.3229 15.1137 53.3204 21.2592 53.3379C21.8199 53.3392 21.9576 53.1353 21.9488 52.6212C21.925 51.1203 21.92 49.6181 21.9501 48.1184C21.9613 47.5693 21.7598 47.4254 21.2341 47.4292C18.1727 47.4504 15.11 47.4392 12.046 47.4392Z" fill="#C4C4C4"/>
<path d="M6.07457 4.40929C7.63534 4.40929 9.19736 4.40428 10.7581 4.41179C11.7031 4.41554 12.1149 4.81204 12.1199 5.7689C12.1324 8.22671 12.1324 10.6833 12.1211 13.1411C12.1174 14.1004 11.6793 14.527 10.7056 14.5295C7.6028 14.5382 4.50004 14.5382 1.39728 14.5295C0.399746 14.527 0.00673804 14.1242 0.00548643 13.1486C0.00173158 10.6895 0.00173158 8.23297 0.00548643 5.77516C0.00673804 4.76952 0.369707 4.41304 1.38977 4.41054C2.95179 4.40679 4.51256 4.40929 6.07457 4.40929ZM6.07583 12.3769C7.18601 12.3769 8.29745 12.3668 9.40763 12.3819C9.79188 12.3869 9.97837 12.278 9.97336 11.8553C9.95709 10.2593 9.96084 8.66199 9.97086 7.06473C9.97336 6.68198 9.80564 6.55065 9.44267 6.5519C7.20228 6.55815 4.96064 6.56065 2.72024 6.5494C2.28843 6.5469 2.13699 6.73076 2.13949 7.14603C2.15076 8.6845 2.15827 10.223 2.13574 11.7615C2.12823 12.263 2.33975 12.3931 2.8016 12.3844C3.89301 12.3606 4.98567 12.3769 6.07583 12.3769Z" fill="#C4C4C4"/>
<path d="M31.1019 55.3661C31.1006 56.5777 31.1532 56.435 29.9792 56.4413C28.9441 56.4463 28.9441 56.4425 28.9454 55.3323C28.9466 54.296 28.9466 54.296 30.1357 54.2973C31.1019 54.2998 31.1019 54.2998 31.1019 55.3661Z" fill="#C4C4C4"/>
<path d="M46.0049 14.5334C43.5667 14.5334 41.1298 14.5209 38.6917 14.5422C38.1472 14.5472 37.9245 14.3907 37.942 13.8137C37.9895 12.1578 37.7567 12.3831 39.3751 12.3794C43.9973 12.3706 48.6183 12.3756 53.2405 12.3769C54.059 12.3769 54.0691 12.3806 54.0615 13.1804C54.0465 14.6823 54.2706 14.5271 52.7336 14.5321C50.4907 14.5384 48.2478 14.5334 46.0049 14.5334Z" fill="#C4C4C4"/>
<path d="M48.985 8.39307C50.4644 8.39307 51.9451 8.40683 53.4232 8.38556C53.8988 8.3793 54.0816 8.53575 54.0691 9.02388C54.0227 10.7724 54.3144 10.5346 52.5533 10.5433C49.9249 10.5559 47.2966 10.5346 44.6682 10.5559C44.1174 10.5596 43.9084 10.3881 43.9234 9.82116C43.966 8.15651 43.7607 8.41309 45.3628 8.39682C46.5706 8.38305 47.7772 8.39307 48.985 8.39307Z" fill="#C4C4C4"/>
<path d="M40.0134 10.5459C39.5265 10.5446 39.0384 10.5296 38.5528 10.5496C38.0947 10.5684 37.9382 10.3682 37.947 9.92133C37.982 8.11901 37.733 8.4219 39.4527 8.39436C40.1336 8.3831 40.8157 8.40688 41.4978 8.3881C41.9071 8.37684 42.1111 8.50951 42.1049 8.95133C42.0811 10.8187 42.3126 10.5146 40.5979 10.5446C40.4027 10.5496 40.2087 10.5471 40.0134 10.5459Z" fill="#C4C4C4"/>
<path d="M15.5718 49.3454C16.8785 49.3454 18.1852 49.3591 19.4919 49.3391C19.9475 49.3316 20.1164 49.4943 20.1052 49.9512C20.0651 51.7109 20.3455 51.4781 18.5995 51.4881C16.3178 51.5007 14.0348 51.4756 11.7531 51.5007C11.1661 51.5069 10.9709 51.3167 10.9922 50.7247C11.0497 49.1288 10.7969 49.3654 12.3527 49.3479C13.4253 49.3354 14.4979 49.3441 15.5718 49.3454Z" fill="#C4C4C4"/>
<path d="M6.56521 49.3467C7.24734 49.3467 7.92947 49.3542 8.6116 49.3429C8.95955 49.3379 9.10349 49.4856 9.09848 49.831C9.06969 51.771 9.37008 51.4606 7.54648 51.4857C6.55269 51.4994 5.55891 51.4794 4.56513 51.4894C4.14583 51.4944 3.97561 51.3305 3.98438 50.8987C4.02318 49.0312 3.74907 49.383 5.51385 49.3442C5.8643 49.3366 6.21476 49.3429 6.56646 49.3429C6.56521 49.3454 6.56521 49.3467 6.56521 49.3467Z" fill="#C4C4C4"/>
<path d="M6.04202 10.5459C5.55514 10.5446 5.06826 10.5346 4.58138 10.5484C4.17461 10.5596 3.9756 10.4194 3.98436 9.97512C4.02191 8.09519 3.75156 8.42562 5.49006 8.39558C6.19096 8.38306 6.89187 8.40434 7.59277 8.39183C7.95699 8.38557 8.13597 8.52325 8.13347 8.89998C8.12596 10.8713 8.33748 10.5108 6.62527 10.5471C6.43127 10.5496 6.23727 10.5471 6.04202 10.5459Z" fill="#C4C4C4"/>
</svg>
