<svg width="57" height="57" viewBox="0 0 57 57" fill="none" xmlns="http://www.w3.org/2000/svg">
<path fill-rule="evenodd" clip-rule="evenodd" d="M5.54573 1.6806L14.329 7.53228L15.6655 11.539L37.643 33.5021L36.2287 34.9154L13.9174 12.6187L12.6486 8.81489L5.80057 4.25251L3.05211 6.99916L7.61749 13.8427L11.4238 15.1107L33.7351 37.4074L32.3209 38.8207L10.3434 16.8576L6.33403 15.522L0.478516 6.74449L5.54573 1.6806Z" fill="#C4C4C4"/>
<path fill-rule="evenodd" clip-rule="evenodd" d="M39.2406 34.269L32.9107 40.5948C33.0203 40.8441 33.1527 41.1432 33.2858 41.4431C33.4238 41.754 33.5622 42.0646 33.676 42.3198C34.0364 42.3188 34.5056 42.3176 34.9753 42.3168C35.4633 42.316 35.9527 42.3156 36.3214 42.3162C36.5054 42.3165 36.6613 42.3171 36.7724 42.318C36.8273 42.3185 36.8751 42.319 36.911 42.3198C36.9277 42.3202 36.949 42.3207 36.9695 42.3216C36.9777 42.322 36.999 42.323 37.0243 42.3254C37.0343 42.3263 37.0655 42.3292 37.1047 42.3359C37.1222 42.339 37.1658 42.3468 37.2198 42.3628C37.2474 42.3714 37.3141 42.396 37.3528 42.4127C37.4117 42.4421 37.5596 42.54 37.6429 42.6144L48.0638 53.0285C49.1039 54.0679 50.8037 54.073 51.8617 53.0268C52.9024 51.985 52.9018 50.2758 51.8601 49.2347L41.4392 38.8207C41.3647 38.7375 41.2668 38.5897 41.2373 38.5308C41.2205 38.4921 41.196 38.4255 41.1874 38.3979C41.1714 38.3439 41.1635 38.3003 41.1605 38.2828C41.1537 38.2437 41.1508 38.2124 41.1499 38.2024C41.1476 38.1772 41.1466 38.1559 41.1462 38.1477C41.1452 38.1272 41.1447 38.1059 41.1443 38.0892C41.1436 38.0533 41.143 38.0056 41.1426 37.9508C41.1416 37.8397 41.1411 37.6839 41.1408 37.5C41.1402 37.1316 41.1406 36.6424 41.1414 36.1549C41.1421 35.7128 41.1432 35.2712 41.1441 34.9204C40.8768 34.8284 40.5573 34.7185 40.2376 34.609C39.8805 34.4866 39.5243 34.365 39.2406 34.269ZM42.1463 34.2088L43.1463 34.2121L43.1444 34.8199C43.1434 35.1848 43.1422 35.6713 43.1414 36.1582C43.1406 36.6453 43.1402 37.1317 43.1408 37.4967C43.1409 37.568 43.141 37.6344 43.1412 37.6951L53.2743 47.8215C55.0977 49.6437 55.0977 52.6196 53.2743 54.4418L53.2711 54.445C51.4372 56.2611 48.4748 56.2657 46.6496 54.4418L36.5166 44.3154C36.4559 44.3152 36.3894 44.315 36.318 44.3149C35.9528 44.3143 35.4661 44.3147 34.9787 44.3155C34.4915 44.3163 34.0047 44.3176 33.6395 44.3186L33.032 44.3204C33.032 44.3204 33.0313 44.3204 33.028 43.3211L32.115 43.7288L31.9093 43.2681C31.786 42.9918 31.6217 42.6231 31.4577 42.2538C31.2939 41.8848 31.1298 41.5139 31.0072 41.2337C30.9461 41.0942 30.8941 40.9743 30.8572 40.8875C30.8392 40.8452 30.8224 40.8052 30.8095 40.7729C30.8038 40.7587 30.7944 40.7349 30.7853 40.7092C30.7819 40.6998 30.7709 40.6686 30.7603 40.6292C30.7562 40.6142 30.7423 40.5626 30.7336 40.4953C30.7296 40.4649 30.7208 40.3888 30.7281 40.2917C30.7281 40.2907 30.7282 40.2896 30.7283 40.2883C30.7322 40.2347 30.7545 39.923 31.0183 39.6594L38.2608 32.4217C38.5101 32.1725 38.8046 32.1407 38.848 32.1361C38.8495 32.1359 38.8507 32.1358 38.8516 32.1357C38.9388 32.1254 39.0079 32.1292 39.0355 32.1311C39.0969 32.1352 39.1445 32.1442 39.1586 32.1469C39.1954 32.154 39.2249 32.1618 39.2343 32.1643C39.2592 32.1709 39.2829 32.178 39.2978 32.1825C39.3312 32.1927 39.3733 32.2062 39.4186 32.221C39.5112 32.2512 39.6397 32.2942 39.7897 32.3447C40.0907 32.4462 40.4895 32.5824 40.8863 32.7183C41.2835 32.8545 41.6802 32.9909 41.9774 33.0933L42.4724 33.2641L42.1463 34.2088ZM33.028 43.3211L32.115 43.7288L32.3805 44.3226L33.032 44.3204L33.028 43.3211ZM42.1463 34.2088L42.4724 33.2641L43.1486 33.4977L43.1463 34.2121L42.1463 34.2088Z" fill="#C4C4C4"/>
<path fill-rule="evenodd" clip-rule="evenodd" d="M7.45083 50.2225L5.61415 52.0722L4.19495 50.663L6.03163 48.8133L7.45083 50.2225Z" fill="#C4C4C4"/>
<path fill-rule="evenodd" clip-rule="evenodd" d="M36.5144 3.64066C39.257 0.886309 43.0571 -0.168502 46.6097 0.473123L46.6184 0.474695C48.442 0.820714 49.1228 3.07059 47.8163 4.37617L43.4526 8.73705C43.3351 8.85447 43.3351 9.04183 43.4526 9.15925L47.139 12.8432C47.2565 12.9606 47.444 12.9606 47.5615 12.8432L51.9315 8.47608C53.2132 7.21765 55.5002 7.82383 55.8314 9.69151C56.4587 13.2393 55.4043 17.0355 52.6621 19.776C49.4708 22.9652 45.2355 23.5024 41.3654 22.1623C41.3645 22.162 41.3636 22.1617 41.3628 22.1614L41.6904 21.2172L41.3667 22.1628C41.3662 22.1626 41.3658 22.1625 41.3654 22.1623C41.1997 22.1061 41.075 22.152 41.0037 22.2233L35.0247 28.1983L33.6105 26.785L39.5895 20.81C40.2474 20.1525 41.1904 19.9901 42.0141 20.2717L42.018 20.273C45.2854 21.4051 48.6823 20.9265 51.2478 18.3627C53.5075 16.1045 54.3809 12.9751 53.8621 10.0403C53.8621 10.0401 53.8621 10.0404 53.8621 10.0403C53.8437 9.93675 53.7781 9.86048 53.6613 9.82532C53.5409 9.78911 53.4223 9.81578 53.3352 9.89979L53.3394 9.89562L52.6323 9.18898L53.3331 9.90184C53.3338 9.90116 53.3345 9.90047 53.3352 9.89979L48.9757 14.2565C48.0771 15.1545 46.6233 15.1545 45.7248 14.2565L42.0384 10.5725C41.1398 9.67458 41.1398 8.22172 42.0384 7.32377L46.4021 2.96288C46.5799 2.7852 46.4807 2.48536 46.2483 2.43891C46.2502 2.43925 46.2521 2.4396 46.254 2.43995L46.4319 1.45654L46.2453 2.43834C46.2463 2.43852 46.2473 2.43871 46.2483 2.43891C43.316 1.91121 40.1893 2.78302 37.9314 5.05124L37.9295 5.05308C35.3645 7.61643 34.8852 11.0103 36.0172 14.275C36.017 14.2743 36.0168 14.2737 36.0166 14.273L35.0731 14.6043L36.0179 14.2769C36.0177 14.2763 36.0175 14.2756 36.0172 14.275C36.3032 15.0907 36.1372 16.0476 35.4806 16.7038L29.5016 22.6789L28.0874 21.2656L34.0664 15.2905C34.1387 15.2182 34.1814 15.0827 34.1296 14.9356L34.1283 14.9317C32.7863 11.0637 33.3232 6.83048 36.5144 3.64066ZM36.5144 3.64066C36.5141 3.64099 36.5138 3.64131 36.5135 3.64163L37.2224 4.34644L36.5153 3.6398C36.515 3.64008 36.5147 3.64037 36.5144 3.64066Z" fill="#C4C4C4"/>
<path fill-rule="evenodd" clip-rule="evenodd" d="M1.43618 47.8863L19.9203 29.4274L21.334 30.8412L2.85015 49.2998C2.85007 49.2999 2.84998 49.3 2.8499 49.3001C1.71662 50.4329 1.7167 52.2733 2.85015 53.406C3.98368 54.5388 5.82548 54.5388 6.95901 53.406L25.3389 35.0382L26.7531 36.4515L8.37323 54.8193C6.45864 56.7326 3.35052 56.7326 1.43594 54.8193C-0.478645 52.9059 -0.478645 49.7999 1.43594 47.8865L1.43618 47.8863Z" fill="#C4C4C4"/>
</svg>
