<svg width="54" height="41" viewBox="0 0 54 41" fill="none" xmlns="http://www.w3.org/2000/svg">
<path d="M38.8125 30.6351C38.3649 30.6351 37.9357 30.8129 37.6193 31.1293C37.3028 31.4458 37.125 31.875 37.125 32.3226C37.125 32.7701 37.3028 33.1993 37.6193 33.5158C37.9357 33.8323 38.3649 34.0101 38.8125 34.0101H45.5625C46.0101 34.0101 46.4393 33.8323 46.7557 33.5158C47.0722 33.1993 47.25 32.7701 47.25 32.3226C47.25 31.875 47.0722 31.4458 46.7557 31.1293C46.4393 30.8129 46.0101 30.6351 45.5625 30.6351H38.8125Z" fill="#CCCCCC"/>
<path d="M0 8.71199C0 6.4757 0.888948 4.33099 2.47129 2.74969C4.05362 1.16839 6.19974 0.280029 8.4375 0.280029H45.5625C47.8003 0.280029 49.9464 1.16839 51.5287 2.74969C53.1111 4.33099 54 6.4757 54 8.71199V32.3215C54 34.5578 53.1111 36.7025 51.5287 38.2838C49.9464 39.8651 47.8003 40.7534 45.5625 40.7534H8.4375C6.19974 40.7534 4.05362 39.8651 2.47129 38.2838C0.888948 36.7025 0 34.5578 0 32.3215V8.71199ZM3.375 32.3215C3.375 33.6633 3.90837 34.9501 4.85777 35.8989C5.80718 36.8476 7.09484 37.3807 8.4375 37.3807H45.5625C46.9052 37.3807 48.1928 36.8476 49.1422 35.8989C50.0916 34.9501 50.625 33.6633 50.625 32.3215V17.144H3.375V32.3215ZM50.625 8.71199C50.625 7.37021 50.0916 6.08339 49.1422 5.13461C48.1928 4.18583 46.9052 3.65281 45.5625 3.65281H8.4375C7.09484 3.65281 5.80718 4.18583 4.85777 5.13461C3.90837 6.08339 3.375 7.37021 3.375 8.71199V13.7712H50.625V8.71199Z" fill="#CCCCCC"/>
</svg>
