<svg width="60" height="50" viewBox="0 0 60 50" fill="none" xmlns="http://www.w3.org/2000/svg">
<path fill-rule="evenodd" clip-rule="evenodd" d="M52 3H8C5.23858 3 3 5.23858 3 8V28.1965C3 30.958 5.23858 33.1965 8 33.1965H52C54.7614 33.1965 57 30.958 57 28.1965V8C57 5.23858 54.7614 3 52 3ZM8 0C3.58172 0 0 3.58172 0 8V28.1965C0 32.6148 3.58172 36.1965 8 36.1965H52C56.4183 36.1965 60 32.6148 60 28.1965V8C60 3.58172 56.4183 0 52 0H8Z" fill="#C4C4C4"/>
<path fill-rule="evenodd" clip-rule="evenodd" d="M17.0822 48.2621C17.0822 47.4337 17.7537 46.7621 18.5822 46.7621H41.1941C42.0225 46.7621 42.6941 47.4337 42.6941 48.2621C42.6941 49.0905 42.0225 49.7621 41.1941 49.7621H18.5822C17.7537 49.7621 17.0822 49.0905 17.0822 48.2621Z" fill="#C4C4C4"/>
<path fill-rule="evenodd" clip-rule="evenodd" d="M24.0224 48.2621V35.9772H27.0224V48.2621H24.0224Z" fill="#C4C4C4"/>
<path fill-rule="evenodd" clip-rule="evenodd" d="M32.306 48.2621V35.9772H35.306V48.2621H32.306Z" fill="#C4C4C4"/>
<path fill-rule="evenodd" clip-rule="evenodd" d="M19.5415 7.94444C20.1213 8.53616 20.1116 9.48586 19.5199 10.0657L12.2178 17.2207L19.5199 24.3758C20.1116 24.9556 20.1213 25.9053 19.5415 26.4971C18.9617 27.0888 18.012 27.0984 17.4203 26.5186L9.02477 18.2921C8.73684 18.01 8.57458 17.6239 8.57458 17.2207C8.57458 16.8176 8.73684 16.4315 9.02477 16.1494L17.4203 7.92287C18.012 7.34307 18.9617 7.35273 19.5415 7.94444Z" fill="#C4C4C4"/>
<path fill-rule="evenodd" clip-rule="evenodd" d="M35.869 26.497C35.2892 25.9053 35.2988 24.9556 35.8905 24.3758L43.1927 17.2207L35.8905 10.0656C35.2988 9.48583 35.2892 8.53613 35.869 7.94442C36.4488 7.3527 37.3985 7.34305 37.9902 7.92285L46.3857 16.1493C46.6736 16.4315 46.8359 16.8176 46.8359 17.2207C46.8359 17.6238 46.6736 18.01 46.3857 18.2921L37.9902 26.5186C37.3985 27.0984 36.4488 27.0887 35.869 26.497Z" fill="#C4C4C4"/>
<path fill-rule="evenodd" clip-rule="evenodd" d="M32.0574 8.27859C32.8162 8.61116 33.1617 9.49584 32.8291 10.2546L25.3291 27.3657C24.9965 28.1244 24.1119 28.4699 23.3531 28.1373C22.5944 27.8048 22.2489 26.9201 22.5814 26.1613L30.0814 9.05025C30.414 8.29151 31.2987 7.94602 32.0574 8.27859Z" fill="#C4C4C4"/>
</svg>
