<svg width="1364" height="580" viewBox="0 0 1364 580" fill="none" xmlns="http://www.w3.org/2000/svg">
<path d="M56.0566 73L56.0566 142.5L116.057 142.5L116.057 64L104.057 64C104.723 56.3333 105.39 51.6667 106.057 50C106.057 49.6667 106.223 48.6667 106.557 47C106.89 45.6667 107.557 44.1667 108.557 42.5C109.557 40.8333 111.057 39.3333 113.057 38C114.723 36.6667 117.223 36 120.557 36L120.557 -2.54873e-05C104.557 0.999973 92.7233 3.3333 85.0567 6.99997C77.39 10.6666 71.2233 16.1666 66.5567 23.5C62.89 30.1666 60.2233 37.6666 58.5566 46C56.89 54.3333 56.0566 63.3333 56.0566 73ZM173.057 73L173.057 142.5L233.057 142.5L233.057 64L221.057 64C221.723 56.3333 222.39 51.6667 223.057 50C223.057 49.6667 223.223 48.6667 223.557 47C223.89 45.6667 224.557 44.1667 225.557 42.5C226.557 40.8333 228.057 39.3333 230.057 38C231.723 36.6667 234.223 36 237.557 36L237.557 -1.52588e-05C221.557 0.999983 209.723 3.33331 202.057 6.99998C194.39 10.6667 188.223 16.1667 183.557 23.5C179.89 30.1667 177.223 37.6667 175.557 46C173.89 54.3333 173.057 63.3333 173.057 73Z" fill="#FFCE07" fill-opacity="0.2"/>
<path d="M1363.94 458V388.5H1303.94V467H1315.94C1315.28 474.667 1314.61 479.333 1313.94 481C1313.94 481.333 1313.78 482.333 1313.44 484C1313.11 485.333 1312.44 486.833 1311.44 488.5C1310.44 490.167 1308.94 491.667 1306.94 493C1305.28 494.333 1302.78 495 1299.44 495V531C1315.44 530 1327.28 527.667 1334.94 524C1342.61 520.333 1348.78 514.833 1353.44 507.5C1357.11 500.833 1359.78 493.333 1361.44 485C1363.11 476.667 1363.94 467.667 1363.94 458ZM1246.94 458V388.5H1186.94V467H1198.94C1198.28 474.667 1197.61 479.333 1196.94 481C1196.94 481.333 1196.78 482.333 1196.44 484C1196.11 485.333 1195.44 486.833 1194.44 488.5C1193.44 490.167 1191.94 491.667 1189.94 493C1188.28 494.333 1185.78 495 1182.44 495V531C1198.44 530 1210.28 527.667 1217.94 524C1225.61 520.333 1231.78 514.833 1236.44 507.5C1240.11 500.833 1242.78 493.333 1244.44 485C1246.11 476.667 1246.94 467.667 1246.94 458Z" fill="#FFCE07" fill-opacity="0.2"/>
<path d="M677 140.5C677 142.985 674.985 145 672.5 145C670.015 145 668 142.985 668 140.5C668 138.015 670.015 136 672.5 136C674.985 136 677 138.015 677 140.5Z" fill="#FFCE07"/>
<path d="M677 178.5C677 180.985 674.985 183 672.5 183C670.015 183 668 180.985 668 178.5C668 176.015 670.015 174 672.5 174C674.985 174 677 176.015 677 178.5Z" fill="#FFCE07"/>
<path d="M677 159.5C677 161.985 674.985 164 672.5 164C670.015 164 668 161.985 668 159.5C668 157.015 670.015 155 672.5 155C674.985 155 677 157.015 677 159.5Z" fill="#FFCE07"/>
<path d="M677 197.5C677 199.985 674.985 202 672.5 202C670.015 202 668 199.985 668 197.5C668 195.015 670.015 193 672.5 193C674.985 193 677 195.015 677 197.5Z" fill="#FFCE07"/>
<path d="M725 140.5C725 142.985 722.985 145 720.5 145C718.015 145 716 142.985 716 140.5C716 138.015 718.015 136 720.5 136C722.985 136 725 138.015 725 140.5Z" fill="#FFCE07"/>
<path d="M725 178.5C725 180.985 722.985 183 720.5 183C718.015 183 716 180.985 716 178.5C716 176.015 718.015 174 720.5 174C722.985 174 725 176.015 725 178.5Z" fill="#FFCE07"/>
<path d="M725 159.5C725 161.985 722.985 164 720.5 164C718.015 164 716 161.985 716 159.5C716 157.015 718.015 155 720.5 155C722.985 155 725 157.015 725 159.5Z" fill="#FFCE07"/>
<path d="M725 197.5C725 199.985 722.985 202 720.5 202C718.015 202 716 199.985 716 197.5C716 195.015 718.015 193 720.5 193C722.985 193 725 195.015 725 197.5Z" fill="#FFCE07"/>
<path d="M701 140.5C701 142.985 698.985 145 696.5 145C694.015 145 692 142.985 692 140.5C692 138.015 694.015 136 696.5 136C698.985 136 701 138.015 701 140.5Z" fill="#FFCE07"/>
<path d="M701 178.5C701 180.985 698.985 183 696.5 183C694.015 183 692 180.985 692 178.5C692 176.015 694.015 174 696.5 174C698.985 174 701 176.015 701 178.5Z" fill="#FFCE07"/>
<path d="M701 159.5C701 161.985 698.985 164 696.5 164C694.015 164 692 161.985 692 159.5C692 157.015 694.015 155 696.5 155C698.985 155 701 157.015 701 159.5Z" fill="#FFCE07"/>
<path d="M701 197.5C701 199.985 698.985 202 696.5 202C694.015 202 692 199.985 692 197.5C692 195.015 694.015 193 696.5 193C698.985 193 701 195.015 701 197.5Z" fill="#FFCE07"/>
<path d="M749 140.5C749 142.985 746.985 145 744.5 145C742.015 145 740 142.985 740 140.5C740 138.015 742.015 136 744.5 136C746.985 136 749 138.015 749 140.5Z" fill="#FFCE07"/>
<path d="M749 178.5C749 180.985 746.985 183 744.5 183C742.015 183 740 180.985 740 178.5C740 176.015 742.015 174 744.5 174C746.985 174 749 176.015 749 178.5Z" fill="#FFCE07"/>
<path d="M749 159.5C749 161.985 746.985 164 744.5 164C742.015 164 740 161.985 740 159.5C740 157.015 742.015 155 744.5 155C746.985 155 749 157.015 749 159.5Z" fill="#FFCE07"/>
<path d="M749 197.5C749 199.985 746.985 202 744.5 202C742.015 202 740 199.985 740 197.5C740 195.015 742.015 193 744.5 193C746.985 193 749 195.015 749 197.5Z" fill="#FFCE07"/>
<path d="M9 518.5C9 520.985 6.98528 523 4.5 523C2.01472 523 0 520.985 0 518.5C0 516.015 2.01472 514 4.5 514C6.98528 514 9 516.015 9 518.5Z" fill="#C4C4C4"/>
<path d="M9 556.5C9 558.985 6.98528 561 4.5 561C2.01472 561 0 558.985 0 556.5C0 554.015 2.01472 552 4.5 552C6.98528 552 9 554.015 9 556.5Z" fill="#C4C4C4"/>
<path d="M9 537.5C9 539.985 6.98528 542 4.5 542C2.01472 542 0 539.985 0 537.5C0 535.015 2.01472 533 4.5 533C6.98528 533 9 535.015 9 537.5Z" fill="#C4C4C4"/>
<path d="M9 575.5C9 577.985 6.98528 580 4.5 580C2.01472 580 0 577.985 0 575.5C0 573.015 2.01472 571 4.5 571C6.98528 571 9 573.015 9 575.5Z" fill="#C4C4C4"/>
<path d="M57 518.5C57 520.985 54.9853 523 52.5 523C50.0147 523 48 520.985 48 518.5C48 516.015 50.0147 514 52.5 514C54.9853 514 57 516.015 57 518.5Z" fill="#C4C4C4"/>
<path d="M57 556.5C57 558.985 54.9853 561 52.5 561C50.0147 561 48 558.985 48 556.5C48 554.015 50.0147 552 52.5 552C54.9853 552 57 554.015 57 556.5Z" fill="#C4C4C4"/>
<path d="M57 537.5C57 539.985 54.9853 542 52.5 542C50.0147 542 48 539.985 48 537.5C48 535.015 50.0147 533 52.5 533C54.9853 533 57 535.015 57 537.5Z" fill="#C4C4C4"/>
<path d="M57 575.5C57 577.985 54.9853 580 52.5 580C50.0147 580 48 577.985 48 575.5C48 573.015 50.0147 571 52.5 571C54.9853 571 57 573.015 57 575.5Z" fill="#C4C4C4"/>
<path d="M33 518.5C33 520.985 30.9853 523 28.5 523C26.0147 523 24 520.985 24 518.5C24 516.015 26.0147 514 28.5 514C30.9853 514 33 516.015 33 518.5Z" fill="#C4C4C4"/>
<path d="M33 556.5C33 558.985 30.9853 561 28.5 561C26.0147 561 24 558.985 24 556.5C24 554.015 26.0147 552 28.5 552C30.9853 552 33 554.015 33 556.5Z" fill="#C4C4C4"/>
<path d="M33 537.5C33 539.985 30.9853 542 28.5 542C26.0147 542 24 539.985 24 537.5C24 535.015 26.0147 533 28.5 533C30.9853 533 33 535.015 33 537.5Z" fill="#C4C4C4"/>
<path d="M33 575.5C33 577.985 30.9853 580 28.5 580C26.0147 580 24 577.985 24 575.5C24 573.015 26.0147 571 28.5 571C30.9853 571 33 573.015 33 575.5Z" fill="#C4C4C4"/>
<path d="M81 518.5C81 520.985 78.9853 523 76.5 523C74.0147 523 72 520.985 72 518.5C72 516.015 74.0147 514 76.5 514C78.9853 514 81 516.015 81 518.5Z" fill="#C4C4C4"/>
<path d="M81 556.5C81 558.985 78.9853 561 76.5 561C74.0147 561 72 558.985 72 556.5C72 554.015 74.0147 552 76.5 552C78.9853 552 81 554.015 81 556.5Z" fill="#C4C4C4"/>
<path d="M81 537.5C81 539.985 78.9853 542 76.5 542C74.0147 542 72 539.985 72 537.5C72 535.015 74.0147 533 76.5 533C78.9853 533 81 535.015 81 537.5Z" fill="#C4C4C4"/>
<path d="M81 575.5C81 577.985 78.9853 580 76.5 580C74.0147 580 72 577.985 72 575.5C72 573.015 74.0147 571 76.5 571C78.9853 571 81 573.015 81 575.5Z" fill="#C4C4C4"/>
</svg>
